Results
version=1
nRows=9
nColumns=38
inDegrees=yes
endheader
time	pelvis_tilt	pelvis_list	pelvis_rotation	pelvis_tx	pelvis_ty	pelvis_tz	hip_flexion_r	hip_adduction_r	hip_rotation_r	knee_angle_r	ankle_angle_r	subtalar_angle_r	mtp_angle_r	hip_flexion_l	hip_adduction_l	hip_rotation_l	knee_angle_l	ankle_angle_l	subtalar_angle_l	mtp_angle_l	lumbar_extension	lumbar_bending	lumbar_rotation	arm_flex_r	arm_add_r	arm_rot_r	elbow_flex_r	pro_sup_r	wrist_flex_r	wrist_dev_r	arm_flex_l	arm_add_l	arm_rot_l	elbow_flex_l	pro_sup_l	wrist_flex_l	wrist_dev_l
      1.50500000	      5.90386881	     -1.07708244	     -3.21385819	     -0.01673353	      0.93994441	      0.00799383	     -6.47016673	     -1.66495035	      0.00019679	     -1.21226375	      0.00024765	      0.00000000	      0.00000000	     -7.62852897	     -3.65159504	      0.00013515	     -0.36032762	      0.00033232	      0.00000000	      0.00000000	    -12.24386595	      3.33345054	      2.99100498	     -2.91223003	     -6.70013259	    -22.83928087	     28.16862876	     96.60574471	      0.00000000	      0.00000000	     -1.21420790	     -8.59941683	     -2.00263437	     32.68082107	    138.59948572	      0.00000000	      0.00000000
      1.51000000	      5.90478649	     -1.08628154	     -3.21208746	     -0.01677288	      0.93994881	      0.00800711	     -6.47395080	     -1.65365708	      0.00022817	     -1.20691982	      0.00026534	      0.00000000	      0.00000000	     -7.62536779	     -3.66022526	      0.00018914	     -0.36776034	      0.00039310	      0.00000000	      0.00000000	    -12.27406241	      3.33100566	      2.99551895	     -2.95751408	     -6.72842550	    -22.55027594	     28.24584494	     96.90501358	      0.00000000	      0.00000000	     -1.22225590	     -8.62556215	     -1.80904407	     32.71407878	    138.42563815	      0.00000000	      0.00000000
      1.51500000	      5.90733965	     -1.09217633	     -3.22324630	     -0.01685098	      0.93995196	      0.00804087	     -6.46090025	     -1.64738480	      0.00027219	     -1.22453748	      0.00020401	      0.00000000	      0.00000000	     -7.62363325	     -3.66748066	      0.00015429	     -0.36616858	      0.00041524	      0.00000000	      0.00000000	    -12.31293329	      3.30776154	      3.02974652	     -2.99670990	     -6.77724989	    -22.29191430	     28.24059913	     98.33296069	      0.00000000	      0.00000000	     -1.21734225	     -8.65308630	     -1.50627692	     32.69866628	    136.94057981	      0.00000000	      0.00000000
      1.52000000	      5.88081878	     -1.08221758	     -3.21249092	     -0.01677973	      0.93992505	      0.00801893	     -6.44744345	     -1.65515165	      0.00022262	     -1.20632026	      0.00026916	      0.00000000	      0.00000000	     -7.59536686	     -3.65877083	      0.00017840	     -0.37622905	      0.00036242	      0.00000000	      0.00000000	    -12.25041402	      3.32610657	      2.97846388	     -2.83729074	     -6.67212341	    -23.17503318	     28.03132272	     97.13266073	      0.00000000	      0.00000000	     -1.20616177	     -8.58803537	     -2.04186840	     32.64088701	    138.13291496	      0.00000000	      0.00000000
      1.52500000	      5.87618496	     -1.08996964	     -3.23383994	     -0.01668192	      0.93989758	      0.00798582	     -6.45686830	     -1.65696995	      0.00021121	     -1.18773281	      0.00021867	      0.00000000	      0.00000000	     -7.61637930	     -3.65629925	      0.00013712	     -0.34154408	      0.00038430	      0.00000000	      0.00000000	    -12.21973564	      3.35375565	      2.94799494	     -2.91287063	     -6.69701632	    -22.90375280	     28.18615369	     97.33797778	      0.00000000	      0.00000000	     -1.27796885	     -8.62443861	     -1.86850758	     32.75326875	    138.09126884	      0.00000000	      0.00000000
      1.53000000	      5.89586264	     -1.09888748	     -3.21894332	     -0.01671863	      0.93992629	      0.00801018	     -6.47281300	     -1.64051054	      0.00025226	     -1.19473705	      0.00028261	      0.00000000	      0.00000000	     -7.62905634	     -3.67194973	      0.00023072	     -0.35386773	      0.00038748	      0.00000000	      0.00000000	    -12.24498436	      3.35356294	      2.95156578	     -2.86913075	     -6.69174085	    -22.99033901	     28.09809392	     97.01677959	      0.00000000	      0.00000000	     -1.19242857	     -8.55472672	     -2.15580396	     32.54207671	    138.20792332	      0.00000000	      0.00000000
      1.53500000	      5.91267348	     -1.08748249	     -3.22937197	     -0.01671376	      0.93995838	      0.00801635	     -6.48911766	     -1.65775204	      0.00023573	     -1.19529976	      0.00021514	      0.00000000	      0.00000000	     -7.64706758	     -3.66082718	      0.00018045	     -0.34599357	      0.00036261	      0.00000000	      0.00000000	    -12.27195218	      3.34190772	      2.96898194	     -2.87576490	     -6.68467066	    -23.01279646	     28.11456165	     96.98009747	      0.00000000	      0.00000000	     -1.19432423	     -8.56311893	     -2.13965661	     32.56509355	    138.21023929	      0.00000000	      0.00000000
      1.54000000	      5.89170593	     -1.09659630	     -3.22831377	     -0.01671206	      0.93992027	      0.00803798	     -6.46867806	     -1.64365976	      0.00026685	     -1.19323752	      0.00026081	      0.00000000	      0.00000000	     -7.62962210	     -3.67586767	      0.00022309	     -0.34225464	      0.00038157	      0.00000000	      0.00000000	    -12.24534306	      3.34497434	      2.95493632	     -2.92307599	     -6.72399860	    -22.67544492	     28.15279629	     97.38711263	      0.00000000	      0.00000000	     -1.23092211	     -8.61750870	     -1.84424156	     32.62464909	    137.91712270	      0.00000000	      0.00000000
      1.54500000	      5.89583463	     -1.08870349	     -3.23084684	     -0.01671256	      0.93993116	      0.00802472	     -6.47157837	     -1.65368996	      0.00028620	     -1.19085714	      0.00019597	      0.00000000	      0.00000000	     -7.63320694	     -3.66488059	      0.00024226	     -0.34244174	      0.00041623	      0.00000000	      0.00000000	    -12.25059976	      3.33881955	      2.94759886	     -2.84475527	     -6.67886448	    -23.10679409	     28.03750943	     97.09771746	      0.00000000	      0.00000000	     -1.20929910	     -8.58272157	     -2.06094851	     32.57527359	    138.29408220	      0.00000000	      0.00000000
